<svg width="18" height="20" viewBox="0 0 18 20" xmlns="http://www.w3.org/2000/svg">
<path d="M15 14.0938C14.24 14.0938 13.56 14.394 13.04 14.8645L5.91 10.7104C5.96 10.4802 6 10.25 6 10.0098C6 9.76953 5.96 9.53931 5.91 9.30908L12.96 5.19507C13.5 5.69556 14.21 6.00586 15 6.00586C16.66 6.00586 18 4.66455 18 3.00293C18 1.34131 16.66 0 15 0C13.34 0 12 1.34131 12 3.00293C12 3.24316 12.04 3.47339 12.09 3.70361L5.04 7.81763C4.5 7.31714 3.79 7.00684 3 7.00684C1.34 7.00684 0 8.34814 0 10.0098C0 11.6714 1.34 13.0127 3 13.0127C3.79 13.0127 4.5 12.7024 5.04 12.2019L12.16 16.356C12.11 16.5662 12.08 16.7864 12.08 17.0166C12.08 18.6282 13.39 19.9294 15 19.9294C16.61 19.9294 17.92 18.6282 17.92 17.0166C17.92 15.405 16.61 14.0938 15 14.0938ZM15 2.00195C15.55 2.00195 16 2.45239 16 3.00293C16 3.55347 15.55 4.00391 15 4.00391C14.45 4.00391 14 3.55347 14 3.00293C14 2.45239 14.45 2.00195 15 2.00195ZM3 11.0107C2.45 11.0107 2 10.5603 2 10.0098C2 9.45923 2.45 9.00879 3 9.00879C3.55 9.00879 4 9.45923 4 10.0098C4 10.5603 3.55 11.0107 3 11.0107ZM15 18.0176C14.45 18.0176 14 17.5671 14 17.0166C14 16.4661 14.45 16.0156 15 16.0156C15.55 16.0156 16 16.4661 16 17.0166C16 17.5671 15.55 18.0176 15 18.0176Z" fill="#545776"/>
</svg>
