<svg width="22" height="22" viewBox="0 0 22 22" fill="none" xmlns="http://www.w3.org/2000/svg">
<path d="M11.3541 5.68426C8.33251 5.68426 5.89525 8.02455 5.89525 10.926C5.89525 13.8274 8.33251 16.1677 11.3541 16.1677C14.3758 16.1677 16.813 13.8274 16.813 10.926C16.813 8.02455 14.3758 5.68426 11.3541 5.68426ZM11.3541 14.3337C9.40148 14.3337 7.80515 12.8055 7.80515 10.926C7.80515 9.04643 9.39673 7.51817 11.3541 7.51817C13.3115 7.51817 14.9031 9.04643 14.9031 10.926C14.9031 12.8055 13.3068 14.3337 11.3541 14.3337ZM18.3096 5.46985C18.3096 6.14958 17.7395 6.69246 17.0363 6.69246C16.3284 6.69246 15.7631 6.14502 15.7631 5.46985C15.7631 4.79468 16.3332 4.24724 17.0363 4.24724C17.7395 4.24724 18.3096 4.79468 18.3096 5.46985ZM21.9251 6.7107C21.8443 5.07296 21.4547 3.62225 20.2052 2.42702C18.9605 1.23178 17.4497 0.857702 15.744 0.775586C13.9862 0.679785 8.71734 0.679785 6.95947 0.775586C5.25862 0.85314 3.74781 1.22722 2.4983 2.42246C1.24879 3.61769 0.863959 5.0684 0.778441 6.70614C0.678671 8.39407 0.678671 13.4533 0.778441 15.1412C0.859208 16.779 1.24879 18.2297 2.4983 19.4249C3.74781 20.6201 5.25387 20.9942 6.95947 21.0763C8.71734 21.1721 13.9862 21.1721 15.744 21.0763C17.4497 20.9988 18.9605 20.6247 20.2052 19.4249C21.45 18.2297 21.8396 16.779 21.9251 15.1412C22.0249 13.4533 22.0249 8.39863 21.9251 6.7107ZM19.6541 16.9523C19.2835 17.8465 18.5661 18.5353 17.6302 18.8957C16.2287 19.4295 12.903 19.3063 11.3541 19.3063C9.80532 19.3063 6.47487 19.4249 5.07808 18.8957C4.14689 18.5399 3.42949 17.851 3.05416 16.9523C2.4983 15.6065 2.62658 12.4132 2.62658 10.926C2.62658 9.43876 2.50305 6.24082 3.05416 4.8996C3.42474 4.00546 4.14214 3.3166 5.07808 2.95621C6.47962 2.42246 9.80532 2.54563 11.3541 2.54563C12.903 2.54563 16.2334 2.42702 17.6302 2.95621C18.5614 3.31204 19.2788 4.0009 19.6541 4.8996C20.21 6.24538 20.0817 9.43876 20.0817 10.926C20.0817 12.4132 20.21 15.6111 19.6541 16.9523Z" fill="#545776"/>
</svg>
