<svg width="21" height="20" viewBox="0 0 21 20" fill="none" xmlns="http://www.w3.org/2000/svg">
<path d="M18.5651 5.22607C18.5781 5.43104 18.5781 5.63605 18.5781 5.84101C18.5781 12.0928 14.3621 19.2963 6.65648 19.2963C4.28252 19.2963 2.07723 18.5203 0.222168 17.1733C0.559463 17.2172 0.88374 17.2319 1.23401 17.2319C3.19281 17.2319 4.996 16.4852 6.43595 15.2114C4.59386 15.1675 3.05014 13.8058 2.51826 11.9318C2.77773 11.9756 3.03716 12.0049 3.30961 12.0049C3.6858 12.0049 4.06203 11.9464 4.41226 11.8439C2.49235 11.4046 1.05237 9.50131 1.05237 7.20264V7.1441C1.61016 7.49549 2.25883 7.7151 2.94632 7.74435C1.81772 6.89514 1.07832 5.44568 1.07832 3.80586C1.07832 2.9274 1.28584 2.12213 1.64909 1.41935C3.71171 4.28903 6.81213 6.16307 10.2887 6.36808C10.2239 6.01669 10.1849 5.6507 10.1849 5.28466C10.1849 2.67849 12.053 0.555542 14.375 0.555542C15.5814 0.555542 16.6711 1.12655 17.4365 2.04894C18.3835 1.84398 19.2915 1.44864 20.0958 0.906933C19.7845 2.00505 19.1229 2.92745 18.2538 3.51305C19.097 3.41061 19.9142 3.14701 20.6666 2.78102C20.0959 3.71802 19.3824 4.55254 18.5651 5.22607Z" fill="#545776"/>
</svg>
