<svg width="15" height="24" viewBox="0 0 15 24" fill="none" xmlns="http://www.w3.org/2000/svg">
<path d="M13.2357 23.0221C13.5796 23.0295 13.9174 22.9309 14.202 22.7397C14.4865 22.5485 14.7038 22.2742 14.8237 21.9552C14.9435 21.6361 14.9598 21.2881 14.8705 20.9595C14.7811 20.6308 14.5905 20.338 14.3251 20.1215L4.19783 11.5377L14.3251 2.95697C14.5087 2.82346 14.6624 2.65396 14.7767 2.45893C14.891 2.2639 14.9634 2.04757 14.9893 1.82359C15.0152 1.59961 14.9941 1.3728 14.9272 1.15727C14.8604 0.94174 14.7493 0.742119 14.601 0.57103C14.4526 0.39994 14.2701 0.26116 14.0649 0.16308C13.8598 0.0650004 13.6363 0.00991428 13.4086 0.00122247C13.181 -0.00746934 12.9539 0.0303171 12.7417 0.112465C12.5295 0.19461 12.3367 0.319217 12.1755 0.478485L0.580729 10.2936C0.398647 10.4474 0.252435 10.6382 0.152176 10.8533C0.0519172 11.0683 -8.83747e-07 11.3024 -9.04431e-07 11.5392C-9.25115e-07 11.776 0.0519171 12.0101 0.152176 12.2252C0.252435 12.4402 0.398647 12.6312 0.580728 12.785L12.1755 22.6096C12.4684 22.867 12.8441 23.0133 13.2357 23.0224L13.2357 23.0221Z" fill="white"/>
</svg>
