<svg width="21" height="20" viewBox="0 0 21 20" fill="none" xmlns="http://www.w3.org/2000/svg">
<path d="M10.605 16.1111L10.5 16.2146L10.3845 16.1111C5.397 11.6484 2.1 8.69745 2.1 5.70508C2.1 3.63423 3.675 2.0811 5.775 2.0811C7.392 2.0811 8.967 3.11652 9.5235 4.5247H11.4765C12.033 3.11652 13.608 2.0811 15.225 2.0811C17.325 2.0811 18.9 3.63423 18.9 5.70508C18.9 8.69745 15.603 11.6484 10.605 16.1111ZM15.225 0.0102539C13.398 0.0102539 11.6445 0.848946 10.5 2.16393C9.3555 0.848946 7.602 0.0102539 5.775 0.0102539C2.541 0.0102539 0 2.50562 0 5.70508C0 9.60862 3.57 12.8081 8.9775 17.6435L10.5 19.0103L12.0225 17.6435C17.43 12.8081 21 9.60862 21 5.70508C21 2.50562 18.459 0.0102539 15.225 0.0102539Z" fill="#545776"/>
</svg>
