<svg width="22" height="22" viewBox="0 0 22 22" fill="none" xmlns="http://www.w3.org/2000/svg">
<path d="M5.31699 21.1482H1.07842V7.49847H5.31699V21.1482ZM3.19543 5.63652C1.84007 5.63652 0.740723 4.51388 0.740723 3.15849C0.740723 2.50745 0.999342 1.88307 1.45969 1.42272C1.92003 0.962361 2.5444 0.703735 3.19543 0.703735C3.84645 0.703735 4.47082 0.962361 4.93116 1.42272C5.39151 1.88307 5.65013 2.50745 5.65013 3.15849C5.65013 4.51388 4.55033 5.63652 3.19543 5.63652ZM21.1806 21.1482H16.9512V14.5036C16.9512 12.92 16.9192 10.8892 14.7474 10.8892C12.5437 10.8892 12.206 12.6097 12.206 14.3895V21.1482H7.97203V7.49847H12.0372V9.36042H12.0965C12.6624 8.28797 14.0447 7.1562 16.1069 7.1562C20.3966 7.1562 21.1852 9.98107 21.1852 13.6502V21.1482H21.1806Z" fill="#545776"/>
</svg>
