<svg width="9" height="13" viewBox="0 0 9 13" fill="none" xmlns="http://www.w3.org/2000/svg">
<path d="M4.45532 6.16577C4.03332 6.16577 3.62859 6.00822 3.33018 5.72779C3.03178 5.44736 2.86414 5.067 2.86414 4.67041C2.86414 4.27382 3.03178 3.89346 3.33018 3.61303C3.62859 3.3326 4.03332 3.17505 4.45532 3.17505C4.87733 3.17505 5.28206 3.3326 5.58046 3.61303C5.87887 3.89346 6.04651 4.27382 6.04651 4.67041C6.04651 4.86678 6.00535 5.06123 5.92539 5.24266C5.84543 5.42409 5.72822 5.58893 5.58046 5.72779C5.43271 5.86665 5.2573 5.9768 5.06425 6.05194C4.87119 6.12709 4.66428 6.16577 4.45532 6.16577ZM4.45532 0.483398C3.2737 0.483398 2.14047 0.924529 1.30493 1.70975C0.469399 2.49496 0 3.55995 0 4.67041C0 7.81067 4.45532 12.4463 4.45532 12.4463C4.45532 12.4463 8.91065 7.81067 8.91065 4.67041C8.91065 3.55995 8.44125 2.49496 7.60571 1.70975C6.77018 0.924529 5.63695 0.483398 4.45532 0.483398Z" fill="#545776"/>
</svg>
