<svg width="22" height="20" viewBox="0 0 22 20" fill="current" xmlns="http://www.w3.org/2000/svg">
<path d="M11.2251 19.0852L9.69316 17.7288C7.94713 16.1786 6.67873 15.032 5.88796 14.2891C5.09719 13.5461 4.20735 12.6253 3.21842 11.5265C2.26236 10.4277 1.60238 9.44143 1.23849 8.56774C0.874502 7.66166 0.691225 6.73888 0.688654 5.79941C0.68431 4.21204 1.22288 2.86614 2.30437 1.76173C3.41872 0.657227 4.79749 0.102727 6.44068 0.0982302C8.34678 0.0930141 9.92623 0.817595 11.179 2.27197C12.4239 0.81076 13.9993 0.0775454 15.9054 0.0723292C17.5486 0.0678325 18.914 0.614823 20.0015 1.7133C21.1219 2.81169 21.6842 4.15457 21.6886 5.74195C21.692 7.00537 21.2684 8.31855 20.4177 9.6815C19.5669 11.0444 18.6335 12.2294 17.6175 13.2365C16.6344 14.2434 15.0117 15.7543 12.7496 17.769L11.2251 19.0852Z" fill="current"/>
</svg>
