<svg width="10" height="17" viewBox="0 0 11 15" fill="none" xmlns="http://www.w3.org/2000/svg">
<path d="M5.87462 7.60773C5.40103 7.60902 4.94632 7.42589 4.61054 7.09862C4.27475 6.77135 4.0854 6.32675 4.08413 5.86262C4.08286 5.39849 4.26978 4.95286 4.60376 4.62376C4.93775 4.29465 5.39145 4.10904 5.86505 4.10774C6.33865 4.10644 6.79335 4.28958 7.12914 4.61685C7.46492 4.94412 7.65427 5.38872 7.65554 5.85285C7.65617 6.08266 7.61061 6.31035 7.52145 6.52291C7.43229 6.73548 7.30128 6.92876 7.13591 7.09171C6.97053 7.25467 6.77403 7.38411 6.55762 7.47265C6.34121 7.56119 6.10913 7.60709 5.87462 7.60773V7.60773ZM5.85643 0.957753C4.53035 0.961382 3.26 1.48111 2.32483 2.4026C1.38967 3.32409 0.866298 4.57186 0.869854 5.87142C0.879911 9.5464 5.89474 14.9577 5.89474 14.9577C5.89474 14.9577 10.8799 9.51904 10.8698 5.84405C10.8663 4.5445 10.3361 3.29961 9.39587 2.38325C8.45568 1.46689 7.1825 0.954124 5.85643 0.957753V0.957753Z" fill="#545776"/>
</svg>
