<svg width="29" height="29" viewBox="0 0 29 29" fill="none" xmlns="http://www.w3.org/2000/svg">
<g clip-path="url(#clip0_3110_399)">
<path d="M21.5027 14.5212C22.9588 14.6876 24.2738 13.6421 24.4402 12.1859C24.6063 10.7301 23.5609 9.41494 22.1048 9.24867C20.6489 9.08227 19.3337 10.1278 19.1678 11.5839C19.0011 13.04 20.0468 14.355 21.5027 14.5212Z" fill="#383B58"/>
<path d="M9.94033 12.395L13.8851 11.5961L14.7376 12.9588L11.6706 15.8912C12.1457 16.0099 12.6022 16.1873 13.0268 16.4198C13.2304 16.5313 13.4213 16.6602 13.6058 16.7848C13.9031 16.9855 14.1829 17.1787 14.4599 17.2539C14.6789 17.3134 14.9658 17.3161 14.984 17.3171C15.3738 17.3126 15.717 17.2032 16.0669 16.9737C16.9771 16.3767 18.0945 15.7578 19.4824 15.693C19.5848 15.6883 19.6883 15.6857 19.79 15.6854C20.2353 15.6842 20.6708 15.7267 21.0874 15.8104C20.8005 15.3552 15.6948 9.2024 15.6948 9.2024L15.5602 9.04233C15.2308 8.65292 14.6807 8.49114 14.1746 8.67822L9.38704 10.4491C8.92546 10.6193 8.64393 11.105 8.74452 11.6021C8.85578 12.1512 9.39119 12.5062 9.94033 12.395Z" fill="#383B58"/>
<path d="M27.4027 18.4783C26.7502 18.773 26.2636 18.8938 25.7228 18.8953C25.5098 18.8959 25.2894 18.8775 25.0489 18.8387C24.2478 18.6982 23.6759 18.2374 23.1227 17.7918C22.7825 17.5177 22.4611 17.2588 22.0897 17.0685C21.4174 16.7224 20.6095 16.5407 19.7528 16.5431C19.6639 16.5433 19.5735 16.5456 19.4841 16.5498C18.3128 16.6044 17.3644 17.1282 16.5137 17.6861C16.0147 18.0135 15.4222 18.1716 14.884 18.1731C14.7217 18.1735 14.3913 18.1388 14.1768 18.0776C13.765 17.9601 13.4116 17.7213 13.0698 17.4907C12.8942 17.3721 12.7284 17.2602 12.5609 17.1684C11.8437 16.7756 11.0162 16.5691 10.168 16.5715L10.1508 16.5715C8.96318 16.5787 7.89012 16.9458 7.04774 17.6331C5.87475 18.5904 5.09966 18.8606 4.87859 18.899C4.87859 18.899 4.69321 18.948 4.29486 18.949C3.53175 18.9511 2.89332 18.7029 2.25245 18.4263C1.80224 18.232 1.37815 18.1209 0.963563 18.0893C1.04406 18.1355 1.12113 18.1838 1.1959 18.2348C1.52142 18.4604 1.7896 18.735 2.04882 19.0005C2.18759 19.1426 2.31859 19.2768 2.45774 19.4042C3.00252 19.9026 4.12568 20.4904 5.41654 20.4869C6.07155 20.4851 6.70494 20.3409 7.29891 20.0583C7.47368 19.9751 7.64378 19.8762 7.82381 19.7716C8.12251 19.5981 8.4328 19.4232 8.77685 19.3063C9.21099 19.1587 9.88564 19.2053 9.88564 19.2053C10.5851 19.2481 11.1098 19.5771 11.4887 19.8589C12.643 20.7175 13.731 21.1213 14.9127 21.1295L14.9729 21.1297C15.7859 21.1275 16.5293 20.9687 17.1826 20.6579C17.4869 20.513 17.7764 20.3004 18.083 20.0751C18.6588 19.6521 19.2543 19.2146 20.0226 19.1823C20.0683 19.1803 20.1148 19.1793 20.162 19.1791C20.5828 19.178 21.2165 19.2493 21.8463 19.5959C22.6043 20.0145 23.5212 20.4418 24.5777 20.4389C24.7312 20.4385 24.8879 20.429 25.0433 20.411C26.0155 20.2983 26.8365 19.9375 27.4835 19.3387C27.6223 19.2103 27.7529 19.075 27.8911 18.9317C28.1859 18.6264 28.4907 18.3105 28.8762 18.0703C28.9051 18.0522 28.9341 18.0346 28.9635 18.0176C28.4969 18.0604 28.0029 18.2072 27.4027 18.4783Z" fill="#383B58"/>
</g>
<defs>
<clipPath id="clip0_3110_399">
<rect width="28" height="28" fill="white" transform="translate(0.916504 0.902954) rotate(-0.156794)"/>
</clipPath>
</defs>
</svg>
